<svg xmlns="http://www.w3.org/2000/svg" viewBox="0 0 1200 1200" xml:space="preserve">
    <path fill="#191919" d="M962.793 536.382 610.045 55.051c-.092-.125-.208-.217-.303-.337a12.234 12.234 0 0 0-1.097-1.218c-.176-.171-.35-.339-.534-.497a12.212 12.212 0 0 0-1.342-.994c-.173-.112-.338-.235-.515-.337a12.164 12.164 0 0 0-1.825-.861c-.07-.027-.135-.065-.206-.09-1.121-.4-2.306-.609-3.522-.668-.126-.008-.25-.031-.377-.035-.108-.004-.217-.011-.326-.013-.104.001-.206.007-.311.011-.138.004-.276.029-.415.038-1.212.061-2.395.272-3.513.672-.034.012-.065.03-.098.043-.673.247-1.319.554-1.937.914-.156.09-.299.198-.451.296-.491.315-.961.656-1.404 1.039-.172.148-.334.306-.498.464-.404.39-.777.806-1.128 1.252-.091.115-.203.203-.29.322l-352.746 481.33a12.32 12.32 0 0 0-2.327 8.781l49.103 437.611a12.357 12.357 0 0 0 2.481 6.15l36.016 46.902c.006.008.014.013.02.021.524.68 1.137 1.291 1.8 1.854.189.161.388.298.585.446.49.368 1.006.698 1.556.994.244.131.481.264.733.378.145.067.273.157.422.218l266.914 109.342c.368.15.754.225 1.132.339.385.116.758.267 1.154.346.791.156 1.593.237 2.397.237.802 0 1.603-.081 2.393-.237.34-.068.661-.201.993-.296.426-.122.859-.21 1.272-.379l268.526-109.343c.154-.063.286-.156.436-.224.255-.116.497-.249.745-.382a12.273 12.273 0 0 0 1.542-.985c.202-.151.406-.291.599-.455a12.319 12.319 0 0 0 1.79-1.843c.009-.012.021-.019.03-.031l36.016-46.902a12.357 12.357 0 0 0 2.481-6.15l49.103-437.611a12.316 12.316 0 0 0-2.326-8.781zM612.435 125.249l221.49 541.86h-221.49v-541.86zM321.428 993.881 308.163 976.6l-43.61-388.614 70.579 95.315-13.704 310.58zm-58.926-450.2 287.905-392.855-205.868 503.645-82.037-110.79zm325.063-418.432v541.86H366.076l221.489-541.86zM359.496 691.825h223.571l-102.204 324.18-135.666-.057 14.299-324.123zm35.616 348.862 89.693.036 62.173 62.175-151.866-62.211zm204.082 79.48-95.227-95.233L600 720.32l95.652 303.389-96.458 96.458zm51.983-17.034 62.409-62.41 90.949-.037-153.358 62.447zm67.965-87.128-102.208-324.18h223.571l14.299 324.123-135.662.057zM891.837 976.6l-13.265 17.282L864.867 683.3l70.58-95.315-43.61 388.615zm-36.376-322.129L649.593 150.826l287.905 392.855-82.037 110.79z"/>
</svg>