<svg version="1.1" id="logo-svg"
    xmlns="http://www.w3.org/2000/svg" x="0" y="0" viewBox="0 8.5 275 108.5" width="200" preserveAspectRatio="xMinYMin meet" xml:space="preserve">
    <style>.logo_letters{fill:#282}</style>
    <path style="fill:#bfb" d="M247 108.5H24L0 0h275z" id="Trapezoid"/>
    <g id="The">
        <path class="logo_letters" d="m61.3 26.4-.8.3c-.9-1.8-2.6-3.1-4.6-3.1-.8 0-.8.4-.8.9V34c0 .5 0 1.2.2 1.6.3.7 1 .7 1.6.7h.4v.7h-6.5v-.6h.4c.6 0 1.3-.1 1.6-.7.2-.4.2-1.2.2-1.7v-9.4c0-.7 0-1.1-.9-1.1-2.1 0-3.7 1.3-4.7 3.1l-.7-.3 1.2-3.7h12.2l1.2 3.8z"/>
        <path class="logo_letters" d="M72.3 34.3c0 1.2.2 1.9 1.5 2h.2v.7h-5.6v-.6h.3c1.4-.1 1.6-.7 1.6-2v-4.5c0-.5 0-1.1-.3-1.5-.3-.4-.9-.6-1.4-.6-1.2 0-2.9.8-3.7 1.7v5c0 1.2.1 2 1.4 2h.3v.5H61v-.6h.2c1.4-.1 1.7-.7 1.7-2v-9c0-1.1-.1-1.9-1.6-2H61v-.6c1-.1 2.1-.3 3-.7h.8v6.4c1.2-1 2.6-1.8 4.3-1.8.8 0 1.7.2 2.4.7.8.6.8 1.5.8 2.4v4.5zM77.4 30.9V32c0 1 .4 2.1.9 2.9.6.9 1.6 1.3 2.7 1.3 1.4 0 2.4-.7 3.1-1.9l.7.4c-.8 1.7-2.5 2.5-4.3 2.5-1.4 0-2.6-.4-3.7-1.4-1-1-1.6-2.5-1.6-3.9 0-3 1.9-5.2 5-5.2 2.5 0 4.5 1.7 4.5 4.2v.1h-7.3zm5.1-.8c0-1.6-1-2.6-2.4-2.6-1.5 0-2.5 1.2-2.6 2.6h5z"/>
    </g>
    <g id="Pragmatic">
        <path class="logo_letters" d="M29.9 53.7c0 .8 0 1.8.3 2.4.5 1.1 1.7 1.2 2.7 1.3h.7v1.1H23.1v-1.1h.3c1-.1 2-.2 2.4-1.2.4-.8.4-2 .4-3V38.6c0-1.9-.2-3.3-2.7-3.5H23V34h11.8c2.1 0 4.2.2 6 1.3 2 1.2 3.1 3.2 3.1 5.5 0 2.1-.9 4.1-2.6 5.4-1.8 1.4-4.4 1.6-6.6 1.6h-5v5.9zm4.4-7.3c1.8 0 3.4-.1 4.7-1.5 1.1-1.2 1.4-2.5 1.4-4.1 0-1.5-.5-3.1-1.7-4.1-1.2-1-2.8-1.3-4.3-1.3-.9 0-3.3.1-4 .7-.5.3-.5 1.1-.5 1.7v8.6h4.4zM51.7 53.9c.1 2.1.4 3.3 2.7 3.5h.6v1.1h-9.9v-1.1h.4c2.4-.1 2.8-1.3 2.8-3.5v-7.5c0-2-.4-3.3-2.6-3.5H45v-1.1l5.5-.8h1.2v2.7c1.6-1.6 3.6-3.1 6-3.1 1.2 0 2.7.5 2.7 1.9 0 1.2-.9 1.9-2 1.9-1.7 0-2.1-1.2-3.2-1.2-1.2 0-2.7 1.1-3.5 2v8.7zM81.3 57.6c-.9.8-2.3 1.2-3.5 1.2h-.1c-1.8 0-3.4-.8-3.9-2.6-2.1 1.7-4.1 2.6-6.8 2.6-2.5 0-5.5-1.4-5.5-4.2 0-2.4 1.5-3.6 3.6-4.5 1.9-.9 4-1.3 6-1.5l2.7-.3v-2.6c-.1-1.1-.3-2.1-1.3-2.7-.9-.6-2.2-.8-3.2-.8-1.1 0-3.5.5-3.5 1.9v.5c0 1.2-.5 2.2-1.8 2.2-.9 0-1.7-.7-1.7-1.6 0-1.5 1.7-2.8 2.9-3.4 1.5-.6 3.5-1 5.1-1h.1c1.5 0 3.4.5 4.7 1.2 1.9 1 2.1 2.4 2.1 4.4v7.1c0 1.5.2 3.8 2 3.8.5 0 1-.3 1.5-.5l.6.8zm-7.6-8.1c-2.7.3-8.6 1-8.6 4.6 0 1.8 1.5 2.9 3.3 2.9 1.9 0 3.9-1.2 5.4-2.4v-5.1zM94.6 56.8c2.7.4 5.8.9 5.8 4.4 0 4.9-5.8 6-9.7 6-2.9 0-9.1-.7-9.1-4.6 0-2.1 2.1-3.2 3.7-3.8v-.1c-1.4-.4-2.6-1.3-2.6-2.9 0-2 1.7-3.3 3.5-3.7-1.8-1-2.8-2.9-2.8-4.9V47c.1-4 3.5-6.3 7.2-6.3 1.1 0 2.2.2 3.3.6.9-1.7 2.5-3.2 4.5-3.2 1 0 2.1.4 2.1 1.5 0 .7-.5 1.4-1.3 1.4s-1.5-.6-2.3-.6-1.4.8-1.9 1.4c1.8 1.3 3 3.1 3 5.4 0 1.7-.9 3.5-2.2 4.5-1.4 1.2-3.4 1.5-5.3 1.5-1.2 0-2.2-.2-3.2-.6-.7.3-1.7 1.1-1.7 1.9 0 1.3 2 1.4 2.8 1.5l6.2.8zm-7.9 2.4c-1.4.4-2.9 1.7-2.9 3.2 0 3.2 4.8 3.7 7.1 3.7s6.9-.5 6.9-3.6c0-2-2.6-2.2-4.1-2.4l-7-.9zm.2-12.2c0 2.7.7 5 3.9 5 1.2 0 2.6-.6 3.1-1.7.5-.9.6-2.4.6-3.4 0-2.6-.6-4.9-3.7-4.9-3 0-3.9 2.5-3.9 5zM107.7 53.9c0 2 .3 3.3 2.6 3.5h.4v1.1h-9.2v-1.1c2.4-.2 2.8-1.4 2.8-3.5v-7.5c0-2-.4-3.3-2.6-3.5h-.6v-1.1l5.5-.8h1.2v2.5c1.6-1.7 4-2.8 6.8-2.8 2.3 0 3.9.6 5 2.8 1.8-1.6 4.3-2.8 6.6-2.8h.1c1.5 0 3.1.5 4.1 1.8.8 1 .9 2.3.9 3.5v7.9c0 1.9.3 3.3 2.7 3.5v1.1h-9.1v-1.1h.3c2.3-.2 2.7-1.4 2.7-3.5v-7.1c0-.8 0-1.7-.3-2.4-.4-1.1-1.4-1.8-2.6-1.8-1.9 0-3.8 1.2-5.4 2.4v9c0 2.1.4 3.3 2.7 3.5h.3v1.1H113v-1.1h.3c2.3-.2 2.7-1.4 2.7-3.5v-7.2c0-2-.1-4.1-2.7-4.1-2.1 0-4.1 1.2-5.5 2.4v8.8zM155.4 57.6c-.9.8-2.3 1.2-3.5 1.2h-.1c-1.8 0-3.4-.8-3.9-2.6-2.1 1.7-4.1 2.6-6.8 2.6-2.5 0-5.5-1.4-5.5-4.2 0-2.4 1.5-3.6 3.6-4.5 1.9-.9 4-1.3 6-1.5l2.7-.3v-2.6c-.1-1.1-.3-2.1-1.3-2.7-.9-.6-2.2-.8-3.2-.8-1.1 0-3.5.5-3.5 1.9v.5c0 1.2-.5 2.2-1.8 2.2-.9 0-1.7-.7-1.7-1.6 0-1.5 1.7-2.8 2.9-3.4 1.5-.6 3.5-1 5.1-1h.1c1.5 0 3.4.5 4.7 1.2 1.9 1 2.1 2.4 2.1 4.4v7.1c0 1.5.2 3.8 2 3.8.5 0 1-.3 1.5-.5l.6.8zm-7.5-8.1c-2.7.3-8.6 1-8.6 4.6 0 1.8 1.5 2.9 3.3 2.9 1.9 0 3.9-1.2 5.4-2.4v-5.1zM167.5 42.2h-5.1v10.1c0 2 0 4.9 2.7 4.9 1.3 0 2.3-.7 3.1-1.6l.9.8c-1.2 1.6-3.1 2.3-5.1 2.3-1.2 0-2.6-.3-3.6-.9-1.4-.9-1.6-2.3-1.6-3.9V42.2h-3V41c4.1-.1 4.9-3.1 4.9-6.6h1.5V41h5.1v1.2zM176.3 53.9c0 2 .3 3.3 2.6 3.5h.4v1.1h-9.5v-1.1h.3c2.4-.1 2.7-1.3 2.7-3.5v-7.5c0-2-.4-3.3-2.6-3.5h-.6v-1.1l5.5-.8h1.2v12.9zm-1.8-14.6c-1.3 0-2.1-1-2.1-2.2 0-1.1 1-2.1 2.2-2.1 1.3 0 2.2 1 2.2 2.2-.1 1.2-1.1 2.1-2.3 2.1zM197.6 54.8c-1.8 2.8-4.4 4-7.7 4-5.4 0-8.9-3.5-8.9-8.9s3.3-9.2 8.9-9.2c1.7 0 3.3.3 4.8 1.3 1.2.8 2.4 2 2.4 3.5 0 1.1-.7 2-1.8 2-1 0-1.8-.7-1.8-1.7 0-.5.1-.9.1-1.4 0-1.6-2.3-2.3-3.6-2.3-4.1 0-4.9 4.5-4.9 7.7v.1c0 3.6 1.6 7.5 5.8 7.5 2.5 0 4.1-1.4 5.6-3.3l1.1.7z"/>
    </g>
    <g id="Bookshelf">
        <path class="logo_letters" d="M68.6 86v-1.1h.4c1-.1 2.1-.2 2.6-1.2.3-.6.4-1.7.4-2.6v-15c0-1.9-.2-3.3-2.7-3.5l-.6-.1v-1.1H81c1.9 0 4.7.1 6.5.7 2.3.8 4 2.6 4 5.1 0 3.1-2.4 4.6-5.2 5.1v.1c3.3.5 6.5 2.5 6.5 6.2 0 2.7-1.4 4.9-3.8 6.1-2.2 1.1-5.2 1.2-7.6 1.2H68.6zm10.9-14c3.3 0 8.3 0 8.3-4.6 0-4.1-4.2-4.6-7.4-4.6-1 0-3.3 0-4.2.8-.6.6-.7 1.7-.7 2.6V72h4zm-4 8.3c0 1 0 2.6.6 3.3.8.8 3.1.9 4.2.9 1.8 0 4.2-.2 5.8-1.1 1.7-1 2.6-2.8 2.6-4.8 0-2.2-1-4.2-3.3-4.8-1.5-.4-3.6-.4-5.3-.4h-4.6v6.9zM110.4 70.5c1.8 1.7 2.6 4.4 2.6 6.8 0 5.4-3.4 9-8.8 9-5.3 0-8.8-3.5-8.8-8.8 0-5.4 3.1-9.3 8.7-9.3 2.3 0 4.7.7 6.3 2.3zm-6.1-.8c-4.1 0-5.1 4.4-5.1 7.7 0 3.5 1 7.5 5.3 7.5 3.9 0 4.8-4.1 4.8-7.2 0-1.7-.1-3.7-.9-5.3-.8-1.5-2.3-2.7-4-2.7h-.1zM130.6 70.5c1.8 1.7 2.6 4.4 2.6 6.8 0 5.4-3.4 9-8.8 9-5.3 0-8.8-3.5-8.8-8.8 0-5.4 3.1-9.3 8.7-9.3 2.2 0 4.7.7 6.3 2.3zm-6.1-.8c-4.1 0-5.1 4.4-5.1 7.7 0 3.5 1 7.5 5.3 7.5 3.9 0 4.8-4.1 4.8-7.2 0-1.7-.1-3.7-.9-5.3-.8-1.5-2.3-2.7-4-2.7h-.1zM141.8 77l5.1-4.5c.4-.4 1.3-1 1.3-1.7 0-1-1.2-1.1-2-1.2v-1.1h9.6v1.1c-3.2.3-5.4 1.7-7.7 3.8l-.9.8 5 7.3c1.2 1.7 2.6 3.1 4.8 3.4V86h-9.8v-1.1h.4c.7 0 1.6 0 1.6-1 0-.8-.8-1.8-1.2-2.4l-3.4-4.9-2.9 2.6v2.3c0 2.1.2 3.4 2.5 3.5h.6v1H135v-1.1h.4c2.4-.1 2.8-1.2 2.8-3.5V66c0-1.9-.2-3.3-2.7-3.5h-.5v-1.1c1.8-.2 3.5-.5 5.2-1.2h1.4V77zM173 74.1h-1.2c-.9-2.4-3.7-4.4-6.3-4.4-1.6 0-3.7.7-3.7 2.6 0 1.8 2.1 2.1 3.4 2.4l4.1 1c2.7.6 5 1.6 5 4.8 0 4-4 5.8-7.5 5.8-2.1 0-4.1-.5-5.8-1.8l-.4 1.5h-1.2l-1.3-6.4h1.3c1 3.2 4 5.2 7.3 5.2 1.8 0 4.5-.9 4.5-3.2 0-1.8-1.6-2.2-3-2.5l-3.7-1c-2.7-.7-5.8-1.4-5.8-4.8 0-3.3 3.7-5.1 6.6-5.1 1.8 0 3.7.5 5.1 1.6l.4-1.3h1l1.2 5.6zM195.7 81.4c0 2 .3 3.3 2.5 3.5h.4V86H189v-1.1h.4c2.4-.1 2.8-1.2 2.8-3.5v-7.7c0-.9 0-1.8-.6-2.6-.6-.7-1.5-1-2.4-1-2.1 0-4.9 1.4-6.3 2.8v8.5c0 2 .3 3.3 2.4 3.5h.5V86h-9.6v-1.1h.4c2.4-.1 2.8-1.2 2.8-3.5V66c0-1.9-.2-3.3-2.7-3.5h-.5v-1.1c1.8-.2 3.5-.5 5.2-1.2h1.4v11.1c2.1-1.8 4.5-3 7.3-3 1.3 0 3 .4 4 1.2 1.4 1.1 1.4 2.6 1.4 4.1v7.8zM204.4 75.6l-.1 1.8c0 1.7.6 3.6 1.5 5 1 1.5 2.8 2.2 4.6 2.2 2.4 0 4.1-1.2 5.3-3.3l1.2.6c-1.3 2.8-4.3 4.3-7.3 4.3-2.4 0-4.5-.6-6.3-2.3-1.8-1.8-2.7-4.3-2.7-6.7 0-5.2 3.3-9 8.6-9h.1c4.2 0 7.7 2.8 7.7 7.2v.1h-12.6zm8.7-1.5c0-2.7-1.7-4.4-4.1-4.4-2.6 0-4.2 2.1-4.5 4.4h8.6zM225.4 81.4c0 1.9.3 3.3 2.5 3.5h.4V86h-9.4v-1.1h.3c2.3-.2 2.7-1.3 2.7-3.5V66c0-1.9-.2-3.3-2.7-3.5h-.5v-1.1c1.8-.2 3.5-.5 5.2-1.2h1.4v21.2zM239.6 69.7H236v11.7c0 2 .3 3.3 2.5 3.5h.5V86h-9.5v-1.1h.3c2.3-.1 2.7-1.3 2.7-3.5V69.7h-3.1v-1.2h3.1V67c0-1.9.1-3.6 1.5-5.1 1.6-1.6 4.3-2.4 6.5-2.4 1.2 0 3.1.6 3.1 2.1 0 .9-.8 1.6-1.7 1.6-1.7 0-1.7-2.1-3.4-2.1-.6 0-1.3.4-1.8.8-.8.8-.8 1.7-.8 2.8v3.9h3.6v1.1z"/>
    </g>
</svg>